<svg width="578" height="52" viewBox="0 0 578 52" fill="none" xmlns="http://www.w3.org/2000/svg">
<rect x="524" y="36" width="49" height="14" rx="4" fill="#FF3737"/>
<path d="M530.371 48.196C530.032 48.196 529.723 48.1136 529.442 47.9489C529.16 47.7812 528.936 47.5568 528.768 47.2756C528.604 46.9943 528.521 46.6847 528.521 46.3466C528.521 46.0057 528.604 45.6946 528.768 45.4134C528.936 45.1321 529.16 44.9077 529.442 44.7401C529.723 44.5724 530.032 44.4886 530.371 44.4886H531.359V42.7756H530.371C530.032 42.7756 529.723 42.6932 529.442 42.5284C529.16 42.3608 528.936 42.1378 528.768 41.8594C528.604 41.5781 528.521 41.267 528.521 40.9261C528.521 40.5852 528.604 40.2756 528.768 39.9972C528.936 39.7159 529.16 39.4929 529.442 39.3281C529.723 39.1605 530.032 39.0767 530.371 39.0767C530.711 39.0767 531.023 39.1605 531.304 39.3281C531.585 39.4929 531.809 39.7159 531.977 39.9972C532.145 40.2756 532.229 40.5852 532.229 40.9261V41.9062H533.942V40.9261C533.942 40.5852 534.024 40.2756 534.189 39.9972C534.356 39.7159 534.579 39.4929 534.858 39.3281C535.139 39.1605 535.45 39.0767 535.791 39.0767C536.132 39.0767 536.442 39.1605 536.72 39.3281C537.001 39.4929 537.224 39.7159 537.389 39.9972C537.557 40.2756 537.64 40.5852 537.64 40.9261C537.64 41.267 537.557 41.5781 537.389 41.8594C537.224 42.1378 537.001 42.3608 536.72 42.5284C536.442 42.6932 536.132 42.7756 535.791 42.7756H534.811V44.4886H535.791C536.132 44.4886 536.442 44.5724 536.72 44.7401C537.001 44.9077 537.224 45.1321 537.389 45.4134C537.557 45.6946 537.64 46.0057 537.64 46.3466C537.64 46.6847 537.557 46.9943 537.389 47.2756C537.224 47.5568 537.001 47.7812 536.72 47.9489C536.442 48.1136 536.132 48.196 535.791 48.196C535.45 48.196 535.139 48.1136 534.858 47.9489C534.579 47.7812 534.356 47.5568 534.189 47.2756C534.024 46.9943 533.942 46.6847 533.942 46.3466V45.358H532.229V46.3466C532.229 46.6847 532.145 46.9943 531.977 47.2756C531.809 47.5568 531.585 47.7812 531.304 47.9489C531.023 48.1136 530.711 48.196 530.371 48.196ZM530.371 47.3267C530.552 47.3267 530.717 47.2827 530.865 47.1946C531.015 47.1065 531.135 46.9886 531.223 46.8409C531.314 46.6903 531.359 46.5256 531.359 46.3466V45.358H530.371C530.192 45.358 530.027 45.4034 529.876 45.4943C529.729 45.5824 529.611 45.7017 529.523 45.8523C529.434 46 529.39 46.1648 529.39 46.3466C529.39 46.5256 529.434 46.6903 529.523 46.8409C529.611 46.9886 529.729 47.1065 529.876 47.1946C530.027 47.2827 530.192 47.3267 530.371 47.3267ZM530.371 41.9062H531.359V40.9261C531.359 40.7443 531.314 40.5795 531.223 40.4318C531.135 40.2841 531.015 40.1662 530.865 40.0781C530.717 39.9901 530.552 39.946 530.371 39.946C530.192 39.946 530.027 39.9901 529.876 40.0781C529.729 40.1662 529.611 40.2841 529.523 40.4318C529.434 40.5795 529.39 40.7443 529.39 40.9261C529.39 41.108 529.434 41.2741 529.523 41.4247C529.611 41.5724 529.729 41.6903 529.876 41.7784C530.027 41.8636 530.192 41.9062 530.371 41.9062ZM534.811 41.9062H535.791C535.973 41.9062 536.138 41.8636 536.285 41.7784C536.433 41.6903 536.551 41.5724 536.639 41.4247C536.727 41.2741 536.771 41.108 536.771 40.9261C536.771 40.7443 536.727 40.5795 536.639 40.4318C536.551 40.2841 536.433 40.1662 536.285 40.0781C536.138 39.9901 535.973 39.946 535.791 39.946C535.609 39.946 535.443 39.9901 535.292 40.0781C535.145 40.1662 535.027 40.2841 534.939 40.4318C534.854 40.5795 534.811 40.7443 534.811 40.9261V41.9062ZM535.791 47.3267C535.973 47.3267 536.138 47.2827 536.285 47.1946C536.433 47.1065 536.551 46.9886 536.639 46.8409C536.727 46.6903 536.771 46.5256 536.771 46.3466C536.771 46.1648 536.727 46 536.639 45.8523C536.551 45.7017 536.433 45.5824 536.285 45.4943C536.138 45.4034 535.973 45.358 535.791 45.358H534.811V46.3466C534.811 46.5256 534.854 46.6903 534.939 46.8409C535.027 46.9886 535.145 47.1065 535.292 47.1946C535.443 47.2827 535.609 47.3267 535.791 47.3267ZM532.229 44.4886H533.942V42.7756H532.229V44.4886ZM543.55 43.6364L548.595 38.5909L553.641 43.6364H551.05V48H546.141V43.6364H543.55ZM545.463 42.8693H546.993V47.233H550.198V42.8693H551.727L548.595 39.7372L545.463 42.8693ZM561.819 46.7131L559.288 44.1818L561.819 41.6506V46.7131ZM561.044 44.642V43.7216H568.706V44.642H561.044ZM567.811 44.642V39.2727H568.731V44.642H567.811ZM565.331 40.1932V39.2727H568.706V40.1932H565.331Z" fill="white"/>
<rect x="0.25" y="4.25" width="577.5" height="47.5" rx="4.75" stroke="#BABABA" stroke-width="0.5"/>
<path d="M19.4793 48V40.7273H23.8685V41.5085H20.36V43.9659H23.6412V44.7472H20.36V47.2188H23.9253V48H19.4793ZM29.2059 43.767L28.453 43.9801C28.4057 43.8546 28.3358 43.7327 28.2435 43.6143C28.1536 43.4936 28.0305 43.3942 27.8742 43.3161C27.718 43.2379 27.5179 43.1989 27.2741 43.1989C26.9403 43.1989 26.6621 43.2758 26.4395 43.4297C26.2194 43.5812 26.1093 43.7741 26.1093 44.0085C26.1093 44.2169 26.185 44.3814 26.3366 44.5021C26.4881 44.6229 26.7248 44.7235 27.0468 44.804L27.8564 45.0028C28.3441 45.1212 28.7075 45.3023 28.9466 45.5462C29.1858 45.7876 29.3053 46.099 29.3053 46.4801C29.3053 46.7926 29.2153 47.072 29.0354 47.3182C28.8579 47.5644 28.6093 47.7585 28.2897 47.9006C27.9701 48.0426 27.5984 48.1136 27.1746 48.1136C26.6183 48.1136 26.1578 47.9929 25.7932 47.7514C25.4287 47.5099 25.1978 47.1572 25.1008 46.6932L25.8962 46.4943C25.972 46.7879 26.1152 47.008 26.3259 47.1548C26.539 47.3016 26.8171 47.375 27.1604 47.375C27.551 47.375 27.8612 47.2921 28.0908 47.1264C28.3228 46.9583 28.4388 46.7571 28.4388 46.5227C28.4388 46.3333 28.3725 46.1747 28.24 46.0469C28.1074 45.9167 27.9038 45.8196 27.6292 45.7557L26.7201 45.5426C26.2206 45.4242 25.8536 45.2408 25.6192 44.9922C25.3872 44.7412 25.2712 44.4276 25.2712 44.0511C25.2712 43.7434 25.3576 43.4711 25.5305 43.2344C25.7056 42.9976 25.9436 42.8118 26.2442 42.6768C26.5473 42.5419 26.8905 42.4744 27.2741 42.4744C27.8138 42.4744 28.2376 42.5928 28.5454 42.8295C28.8555 43.0663 29.0757 43.3788 29.2059 43.767ZM32.7828 48.1136C32.2714 48.1136 31.8311 47.9929 31.4617 47.7514C31.0924 47.5099 30.8083 47.1773 30.6095 46.7536C30.4106 46.3298 30.3112 45.8456 30.3112 45.3011C30.3112 44.7472 30.413 44.2583 30.6166 43.8345C30.8225 43.4084 31.109 43.0758 31.4759 42.8366C31.8453 42.5952 32.2761 42.4744 32.7686 42.4744C33.1521 42.4744 33.4977 42.5455 33.8055 42.6875C34.1133 42.8295 34.3654 43.0284 34.5619 43.2841C34.7584 43.5398 34.8803 43.8381 34.9276 44.179H34.0896C34.0257 43.9304 33.8836 43.7102 33.6634 43.5185C33.4456 43.3243 33.1521 43.2273 32.7828 43.2273C32.4561 43.2273 32.1696 43.3125 31.9234 43.483C31.6795 43.651 31.489 43.889 31.3517 44.1967C31.2167 44.5021 31.1492 44.8608 31.1492 45.2727C31.1492 45.6941 31.2155 46.0611 31.3481 46.3736C31.483 46.6861 31.6724 46.9287 31.9163 47.1016C32.1625 47.2744 32.4513 47.3608 32.7828 47.3608C33.0006 47.3608 33.1982 47.3229 33.3758 47.2472C33.5534 47.1714 33.7037 47.0625 33.8268 46.9205C33.9499 46.7784 34.0375 46.608 34.0896 46.4091H34.9276C34.8803 46.7311 34.7631 47.0211 34.5761 47.2791C34.3914 47.5348 34.1464 47.7384 33.841 47.8899C33.538 48.0391 33.1852 48.1136 32.7828 48.1136ZM41.3374 42.5455V43.2557H38.5107V42.5455H41.3374ZM39.3346 41.2386H40.1727V46.4375C40.1727 46.6742 40.207 46.8518 40.2757 46.9702C40.3467 47.0862 40.4366 47.1643 40.5455 47.2045C40.6568 47.2424 40.774 47.2614 40.8971 47.2614C40.9894 47.2614 41.0652 47.2566 41.1244 47.2472C41.1836 47.2353 41.2309 47.2259 41.2664 47.2188L41.4369 47.9716C41.3801 47.9929 41.3008 48.0142 41.199 48.0355C41.0972 48.0592 40.9681 48.071 40.8119 48.071C40.5751 48.071 40.3431 48.0201 40.1159 47.9183C39.891 47.8165 39.7039 47.6615 39.5548 47.4531C39.408 47.2448 39.3346 46.982 39.3346 46.6648V41.2386ZM44.7554 48.1136C44.263 48.1136 43.8309 47.9964 43.4593 47.7621C43.0899 47.5277 42.8011 47.1998 42.5928 46.7784C42.3868 46.357 42.2838 45.8646 42.2838 45.3011C42.2838 44.733 42.3868 44.237 42.5928 43.8132C42.8011 43.3894 43.0899 43.0604 43.4593 42.826C43.8309 42.5916 44.263 42.4744 44.7554 42.4744C45.2478 42.4744 45.6787 42.5916 46.048 42.826C46.4197 43.0604 46.7085 43.3894 46.9145 43.8132C47.1228 44.237 47.227 44.733 47.227 45.3011C47.227 45.8646 47.1228 46.357 46.9145 46.7784C46.7085 47.1998 46.4197 47.5277 46.048 47.7621C45.6787 47.9964 45.2478 48.1136 44.7554 48.1136ZM44.7554 47.3608C45.1295 47.3608 45.4372 47.2649 45.6787 47.0732C45.9202 46.8814 46.0989 46.6293 46.2149 46.3168C46.3309 46.0043 46.3889 45.6657 46.3889 45.3011C46.3889 44.9366 46.3309 44.5968 46.2149 44.282C46.0989 43.9671 45.9202 43.7126 45.6787 43.5185C45.4372 43.3243 45.1295 43.2273 44.7554 43.2273C44.3814 43.2273 44.0736 43.3243 43.8321 43.5185C43.5906 43.7126 43.4119 43.9671 43.2959 44.282C43.1799 44.5968 43.1219 44.9366 43.1219 45.3011C43.1219 45.6657 43.1799 46.0043 43.2959 46.3168C43.4119 46.6293 43.5906 46.8814 43.8321 47.0732C44.0736 47.2649 44.3814 47.3608 44.7554 47.3608ZM53.5347 48.1136C53.0233 48.1136 52.583 47.9929 52.2137 47.7514C51.8444 47.5099 51.5603 47.1773 51.3614 46.7536C51.1626 46.3298 51.0631 45.8456 51.0631 45.3011C51.0631 44.7472 51.1649 44.2583 51.3685 43.8345C51.5745 43.4084 51.8609 43.0758 52.2279 42.8366C52.5972 42.5952 53.0281 42.4744 53.5205 42.4744C53.904 42.4744 54.2497 42.5455 54.5574 42.6875C54.8652 42.8295 55.1173 43.0284 55.3138 43.2841C55.5103 43.5398 55.6323 43.8381 55.6796 44.179H54.8415C54.7776 43.9304 54.6356 43.7102 54.4154 43.5185C54.1976 43.3243 53.904 43.2273 53.5347 43.2273C53.208 43.2273 52.9215 43.3125 52.6753 43.483C52.4315 43.651 52.2409 43.889 52.1036 44.1967C51.9687 44.5021 51.9012 44.8608 51.9012 45.2727C51.9012 45.6941 51.9675 46.0611 52.1001 46.3736C52.235 46.6861 52.4244 46.9287 52.6682 47.1016C52.9144 47.2744 53.2033 47.3608 53.5347 47.3608C53.7525 47.3608 53.9502 47.3229 54.1278 47.2472C54.3053 47.1714 54.4556 47.0625 54.5787 46.9205C54.7019 46.7784 54.7894 46.608 54.8415 46.4091H55.6796C55.6323 46.7311 55.5151 47.0211 55.328 47.2791C55.1434 47.5348 54.8983 47.7384 54.593 47.8899C54.2899 48.0391 53.9372 48.1136 53.5347 48.1136ZM58.5099 48.1278C58.1642 48.1278 57.8505 48.0627 57.5688 47.9325C57.2871 47.8 57.0634 47.6094 56.8976 47.3608C56.7319 47.1098 56.6491 46.8068 56.6491 46.4517C56.6491 46.1392 56.7106 45.8859 56.8337 45.6918C56.9568 45.4953 57.1214 45.3414 57.3273 45.2301C57.5333 45.1188 57.7606 45.036 58.0091 44.9815C58.2601 44.9247 58.5122 44.8797 58.7655 44.8466C59.097 44.804 59.3657 44.772 59.5716 44.7507C59.78 44.727 59.9315 44.688 60.0262 44.6335C60.1233 44.5791 60.1718 44.4844 60.1718 44.3494V44.321C60.1718 43.9706 60.0759 43.6984 59.8841 43.5043C59.6948 43.3101 59.4071 43.2131 59.0212 43.2131C58.6211 43.2131 58.3074 43.3007 58.0802 43.4759C57.8529 43.651 57.6931 43.8381 57.6008 44.0369L56.8053 43.7528C56.9474 43.4214 57.1367 43.1634 57.3735 42.9787C57.6126 42.7917 57.873 42.6615 58.1547 42.5881C58.4388 42.5123 58.7182 42.4744 58.9928 42.4744C59.168 42.4744 59.3692 42.4957 59.5965 42.5384C59.8261 42.5786 60.0475 42.6626 60.2606 42.7905C60.476 42.9183 60.6547 43.1113 60.7968 43.3693C60.9388 43.6274 61.0099 43.973 61.0099 44.4062V48H60.1718V47.2614H60.1292C60.0724 47.3797 59.9777 47.5064 59.8451 47.6413C59.7125 47.7763 59.5361 47.8911 59.316 47.9858C59.0958 48.0805 58.8271 48.1278 58.5099 48.1278ZM58.6377 47.375C58.9691 47.375 59.2485 47.3099 59.4758 47.1797C59.7054 47.0495 59.8782 46.8814 59.9942 46.6754C60.1126 46.4695 60.1718 46.2528 60.1718 46.0256V45.2585C60.1363 45.3011 60.0581 45.3402 59.9374 45.3757C59.819 45.4089 59.6817 45.4384 59.5255 45.4645C59.3716 45.4882 59.2213 45.5095 59.0745 45.5284C58.9301 45.545 58.8129 45.5592 58.7229 45.571C58.5051 45.5994 58.3015 45.6456 58.1121 45.7095C57.9251 45.7711 57.7736 45.8646 57.6576 45.9901C57.5439 46.1132 57.4871 46.2812 57.4871 46.4943C57.4871 46.7855 57.5948 47.0057 57.8103 47.1548C58.0281 47.3016 58.3039 47.375 58.6377 47.375ZM63.3776 44.7188V48H62.5395V42.5455H63.3492V43.3977H63.4202C63.548 43.1207 63.7422 42.8982 64.0026 42.7301C64.263 42.5597 64.5992 42.4744 65.0111 42.4744C65.3804 42.4744 65.7036 42.5502 65.9806 42.7017C66.2575 42.8509 66.473 43.0781 66.6269 43.3835C66.7807 43.6866 66.8577 44.0701 66.8577 44.5341V48H66.0196V44.5909C66.0196 44.1624 65.9084 43.8286 65.6858 43.5895C65.4633 43.348 65.1579 43.2273 64.7696 43.2273C64.5021 43.2273 64.263 43.2853 64.0523 43.4013C63.844 43.5173 63.6794 43.6866 63.5587 43.9091C63.4379 44.1316 63.3776 44.4015 63.3776 44.7188ZM70.605 48.1136C70.0937 48.1136 69.6533 47.9929 69.284 47.7514C68.9147 47.5099 68.6306 47.1773 68.4317 46.7536C68.2329 46.3298 68.1334 45.8456 68.1334 45.3011C68.1334 44.7472 68.2352 44.2583 68.4388 43.8345C68.6448 43.4084 68.9313 43.0758 69.2982 42.8366C69.6675 42.5952 70.0984 42.4744 70.5908 42.4744C70.9743 42.4744 71.32 42.5455 71.6278 42.6875C71.9355 42.8295 72.1876 43.0284 72.3841 43.2841C72.5806 43.5398 72.7026 43.8381 72.7499 44.179H71.9118C71.8479 43.9304 71.7059 43.7102 71.4857 43.5185C71.2679 43.3243 70.9743 43.2273 70.605 43.2273C70.2783 43.2273 69.9919 43.3125 69.7456 43.483C69.5018 43.651 69.3112 43.889 69.1739 44.1967C69.039 44.5021 68.9715 44.8608 68.9715 45.2727C68.9715 45.6941 69.0378 46.0611 69.1704 46.3736C69.3053 46.6861 69.4947 46.9287 69.7385 47.1016C69.9848 47.2744 70.2736 47.3608 70.605 47.3608C70.8228 47.3608 71.0205 47.3229 71.1981 47.2472C71.3756 47.1714 71.526 47.0625 71.6491 46.9205C71.7722 46.7784 71.8598 46.608 71.9118 46.4091H72.7499C72.7026 46.7311 72.5854 47.0211 72.3983 47.2791C72.2137 47.5348 71.9687 47.7384 71.6633 47.8899C71.3602 48.0391 71.0075 48.1136 70.605 48.1136ZM76.262 48.1136C75.7364 48.1136 75.2831 47.9976 74.9019 47.7656C74.5231 47.5312 74.2307 47.2045 74.0248 46.7855C73.8212 46.3641 73.7194 45.8741 73.7194 45.3153C73.7194 44.7566 73.8212 44.2642 74.0248 43.8381C74.2307 43.4096 74.5172 43.0758 74.8841 42.8366C75.2535 42.5952 75.6843 42.4744 76.1768 42.4744C76.4608 42.4744 76.7414 42.5218 77.0184 42.6165C77.2954 42.7112 77.5475 42.8651 77.7748 43.0781C78.002 43.2888 78.1832 43.5682 78.3181 43.9162C78.453 44.2642 78.5205 44.6927 78.5205 45.2017V45.5568H74.316V44.8324H77.6682C77.6682 44.5246 77.6067 44.25 77.4836 44.0085C77.3628 43.767 77.19 43.5765 76.9651 43.4368C76.7426 43.2971 76.4798 43.2273 76.1768 43.2273C75.843 43.2273 75.5541 43.3101 75.3103 43.4759C75.0688 43.6392 74.883 43.8523 74.7528 44.1151C74.6225 44.3778 74.5574 44.6596 74.5574 44.9602V45.4432C74.5574 45.8551 74.6285 46.2043 74.7705 46.4908C74.9149 46.7749 75.115 46.9915 75.3706 47.1406C75.6263 47.2874 75.9234 47.3608 76.262 47.3608C76.4822 47.3608 76.681 47.33 76.8586 47.2685C77.0385 47.2045 77.1936 47.1098 77.3238 46.9844C77.454 46.8565 77.5546 46.6979 77.6256 46.5085L78.4353 46.7358C78.3501 47.0104 78.2068 47.2519 78.0056 47.4602C77.8044 47.6662 77.5558 47.8272 77.2599 47.9432C76.9639 48.0568 76.6313 48.1136 76.262 48.1136ZM80.6334 40.7273V48H79.7954V40.7273H80.6334Z" fill="#646464" fill-opacity="0.6"/>
<rect x="269.25" y="0.25" width="65.5" height="0.5" stroke="black" stroke-opacity="0.01" stroke-width="0.5"/>
</svg>
