<svg width="578" height="69" viewBox="0 0 578 69" fill="none" xmlns="http://www.w3.org/2000/svg">
<rect x="524" y="53" width="49" height="14" rx="4" fill="#FF3737"/>
<path d="M530.371 65.196C530.032 65.196 529.723 65.1136 529.442 64.9489C529.16 64.7812 528.936 64.5568 528.768 64.2756C528.604 63.9943 528.521 63.6847 528.521 63.3466C528.521 63.0057 528.604 62.6946 528.768 62.4134C528.936 62.1321 529.16 61.9077 529.442 61.7401C529.723 61.5724 530.032 61.4886 530.371 61.4886H531.359V59.7756H530.371C530.032 59.7756 529.723 59.6932 529.442 59.5284C529.16 59.3608 528.936 59.1378 528.768 58.8594C528.604 58.5781 528.521 58.267 528.521 57.9261C528.521 57.5852 528.604 57.2756 528.768 56.9972C528.936 56.7159 529.16 56.4929 529.442 56.3281C529.723 56.1605 530.032 56.0767 530.371 56.0767C530.711 56.0767 531.023 56.1605 531.304 56.3281C531.585 56.4929 531.809 56.7159 531.977 56.9972C532.145 57.2756 532.229 57.5852 532.229 57.9261V58.9062H533.942V57.9261C533.942 57.5852 534.024 57.2756 534.189 56.9972C534.356 56.7159 534.579 56.4929 534.858 56.3281C535.139 56.1605 535.45 56.0767 535.791 56.0767C536.132 56.0767 536.442 56.1605 536.72 56.3281C537.001 56.4929 537.224 56.7159 537.389 56.9972C537.557 57.2756 537.64 57.5852 537.64 57.9261C537.64 58.267 537.557 58.5781 537.389 58.8594C537.224 59.1378 537.001 59.3608 536.72 59.5284C536.442 59.6932 536.132 59.7756 535.791 59.7756H534.811V61.4886H535.791C536.132 61.4886 536.442 61.5724 536.72 61.7401C537.001 61.9077 537.224 62.1321 537.389 62.4134C537.557 62.6946 537.64 63.0057 537.64 63.3466C537.64 63.6847 537.557 63.9943 537.389 64.2756C537.224 64.5568 537.001 64.7812 536.72 64.9489C536.442 65.1136 536.132 65.196 535.791 65.196C535.45 65.196 535.139 65.1136 534.858 64.9489C534.579 64.7812 534.356 64.5568 534.189 64.2756C534.024 63.9943 533.942 63.6847 533.942 63.3466V62.358H532.229V63.3466C532.229 63.6847 532.145 63.9943 531.977 64.2756C531.809 64.5568 531.585 64.7812 531.304 64.9489C531.023 65.1136 530.711 65.196 530.371 65.196ZM530.371 64.3267C530.552 64.3267 530.717 64.2827 530.865 64.1946C531.015 64.1065 531.135 63.9886 531.223 63.8409C531.314 63.6903 531.359 63.5256 531.359 63.3466V62.358H530.371C530.192 62.358 530.027 62.4034 529.876 62.4943C529.729 62.5824 529.611 62.7017 529.523 62.8523C529.434 63 529.39 63.1648 529.39 63.3466C529.39 63.5256 529.434 63.6903 529.523 63.8409C529.611 63.9886 529.729 64.1065 529.876 64.1946C530.027 64.2827 530.192 64.3267 530.371 64.3267ZM530.371 58.9062H531.359V57.9261C531.359 57.7443 531.314 57.5795 531.223 57.4318C531.135 57.2841 531.015 57.1662 530.865 57.0781C530.717 56.9901 530.552 56.946 530.371 56.946C530.192 56.946 530.027 56.9901 529.876 57.0781C529.729 57.1662 529.611 57.2841 529.523 57.4318C529.434 57.5795 529.39 57.7443 529.39 57.9261C529.39 58.108 529.434 58.2741 529.523 58.4247C529.611 58.5724 529.729 58.6903 529.876 58.7784C530.027 58.8636 530.192 58.9062 530.371 58.9062ZM534.811 58.9062H535.791C535.973 58.9062 536.138 58.8636 536.285 58.7784C536.433 58.6903 536.551 58.5724 536.639 58.4247C536.727 58.2741 536.771 58.108 536.771 57.9261C536.771 57.7443 536.727 57.5795 536.639 57.4318C536.551 57.2841 536.433 57.1662 536.285 57.0781C536.138 56.9901 535.973 56.946 535.791 56.946C535.609 56.946 535.443 56.9901 535.292 57.0781C535.145 57.1662 535.027 57.2841 534.939 57.4318C534.854 57.5795 534.811 57.7443 534.811 57.9261V58.9062ZM535.791 64.3267C535.973 64.3267 536.138 64.2827 536.285 64.1946C536.433 64.1065 536.551 63.9886 536.639 63.8409C536.727 63.6903 536.771 63.5256 536.771 63.3466C536.771 63.1648 536.727 63 536.639 62.8523C536.551 62.7017 536.433 62.5824 536.285 62.4943C536.138 62.4034 535.973 62.358 535.791 62.358H534.811V63.3466C534.811 63.5256 534.854 63.6903 534.939 63.8409C535.027 63.9886 535.145 64.1065 535.292 64.1946C535.443 64.2827 535.609 64.3267 535.791 64.3267ZM532.229 61.4886H533.942V59.7756H532.229V61.4886ZM543.55 60.6364L548.595 55.5909L553.641 60.6364H551.05V65H546.141V60.6364H543.55ZM545.463 59.8693H546.993V64.233H550.198V59.8693H551.727L548.595 56.7372L545.463 59.8693ZM561.819 63.7131L559.288 61.1818L561.819 58.6506V63.7131ZM561.044 61.642V60.7216H568.706V61.642H561.044ZM567.811 61.642V56.2727H568.731V61.642H567.811ZM565.331 57.1932V56.2727H568.706V57.1932H565.331Z" fill="white"/>
<rect x="0.25" y="4.25" width="577.5" height="64.5" rx="4.75" stroke="#646464" stroke-width="0.5"/>
<path d="M19.4793 65V57.7273H23.8685V58.5085H20.36V60.9659H23.6412V61.7472H20.36V64.2188H23.9253V65H19.4793ZM29.2059 60.767L28.453 60.9801C28.4057 60.8546 28.3358 60.7327 28.2435 60.6143C28.1536 60.4936 28.0305 60.3942 27.8742 60.3161C27.718 60.2379 27.5179 60.1989 27.2741 60.1989C26.9403 60.1989 26.6621 60.2758 26.4395 60.4297C26.2194 60.5812 26.1093 60.7741 26.1093 61.0085C26.1093 61.2169 26.185 61.3814 26.3366 61.5021C26.4881 61.6229 26.7248 61.7235 27.0468 61.804L27.8564 62.0028C28.3441 62.1212 28.7075 62.3023 28.9466 62.5462C29.1858 62.7876 29.3053 63.099 29.3053 63.4801C29.3053 63.7926 29.2153 64.072 29.0354 64.3182C28.8579 64.5644 28.6093 64.7585 28.2897 64.9006C27.9701 65.0426 27.5984 65.1136 27.1746 65.1136C26.6183 65.1136 26.1578 64.9929 25.7932 64.7514C25.4287 64.5099 25.1978 64.1572 25.1008 63.6932L25.8962 63.4943C25.972 63.7879 26.1152 64.008 26.3259 64.1548C26.539 64.3016 26.8171 64.375 27.1604 64.375C27.551 64.375 27.8612 64.2921 28.0908 64.1264C28.3228 63.9583 28.4388 63.7571 28.4388 63.5227C28.4388 63.3333 28.3725 63.1747 28.24 63.0469C28.1074 62.9167 27.9038 62.8196 27.6292 62.7557L26.7201 62.5426C26.2206 62.4242 25.8536 62.2408 25.6192 61.9922C25.3872 61.7412 25.2712 61.4276 25.2712 61.0511C25.2712 60.7434 25.3576 60.4711 25.5305 60.2344C25.7056 59.9976 25.9436 59.8118 26.2442 59.6768C26.5473 59.5419 26.8905 59.4744 27.2741 59.4744C27.8138 59.4744 28.2376 59.5928 28.5454 59.8295C28.8555 60.0663 29.0757 60.3788 29.2059 60.767ZM32.7828 65.1136C32.2714 65.1136 31.8311 64.9929 31.4617 64.7514C31.0924 64.5099 30.8083 64.1773 30.6095 63.7536C30.4106 63.3298 30.3112 62.8456 30.3112 62.3011C30.3112 61.7472 30.413 61.2583 30.6166 60.8345C30.8225 60.4084 31.109 60.0758 31.4759 59.8366C31.8453 59.5952 32.2761 59.4744 32.7686 59.4744C33.1521 59.4744 33.4977 59.5455 33.8055 59.6875C34.1133 59.8295 34.3654 60.0284 34.5619 60.2841C34.7584 60.5398 34.8803 60.8381 34.9276 61.179H34.0896C34.0257 60.9304 33.8836 60.7102 33.6634 60.5185C33.4456 60.3243 33.1521 60.2273 32.7828 60.2273C32.4561 60.2273 32.1696 60.3125 31.9234 60.483C31.6795 60.651 31.489 60.889 31.3517 61.1967C31.2167 61.5021 31.1492 61.8608 31.1492 62.2727C31.1492 62.6941 31.2155 63.0611 31.3481 63.3736C31.483 63.6861 31.6724 63.9287 31.9163 64.1016C32.1625 64.2744 32.4513 64.3608 32.7828 64.3608C33.0006 64.3608 33.1982 64.3229 33.3758 64.2472C33.5534 64.1714 33.7037 64.0625 33.8268 63.9205C33.9499 63.7784 34.0375 63.608 34.0896 63.4091H34.9276C34.8803 63.7311 34.7631 64.0211 34.5761 64.2791C34.3914 64.5348 34.1464 64.7384 33.841 64.8899C33.538 65.0391 33.1852 65.1136 32.7828 65.1136ZM41.3374 59.5455V60.2557H38.5107V59.5455H41.3374ZM39.3346 58.2386H40.1727V63.4375C40.1727 63.6742 40.207 63.8518 40.2757 63.9702C40.3467 64.0862 40.4366 64.1643 40.5455 64.2045C40.6568 64.2424 40.774 64.2614 40.8971 64.2614C40.9894 64.2614 41.0652 64.2566 41.1244 64.2472C41.1836 64.2353 41.2309 64.2259 41.2664 64.2188L41.4369 64.9716C41.3801 64.9929 41.3008 65.0142 41.199 65.0355C41.0972 65.0592 40.9681 65.071 40.8119 65.071C40.5751 65.071 40.3431 65.0201 40.1159 64.9183C39.891 64.8165 39.7039 64.6615 39.5548 64.4531C39.408 64.2448 39.3346 63.982 39.3346 63.6648V58.2386ZM44.7554 65.1136C44.263 65.1136 43.8309 64.9964 43.4593 64.7621C43.0899 64.5277 42.8011 64.1998 42.5928 63.7784C42.3868 63.357 42.2838 62.8646 42.2838 62.3011C42.2838 61.733 42.3868 61.237 42.5928 60.8132C42.8011 60.3894 43.0899 60.0604 43.4593 59.826C43.8309 59.5916 44.263 59.4744 44.7554 59.4744C45.2478 59.4744 45.6787 59.5916 46.048 59.826C46.4197 60.0604 46.7085 60.3894 46.9145 60.8132C47.1228 61.237 47.227 61.733 47.227 62.3011C47.227 62.8646 47.1228 63.357 46.9145 63.7784C46.7085 64.1998 46.4197 64.5277 46.048 64.7621C45.6787 64.9964 45.2478 65.1136 44.7554 65.1136ZM44.7554 64.3608C45.1295 64.3608 45.4372 64.2649 45.6787 64.0732C45.9202 63.8814 46.0989 63.6293 46.2149 63.3168C46.3309 63.0043 46.3889 62.6657 46.3889 62.3011C46.3889 61.9366 46.3309 61.5968 46.2149 61.282C46.0989 60.9671 45.9202 60.7126 45.6787 60.5185C45.4372 60.3243 45.1295 60.2273 44.7554 60.2273C44.3814 60.2273 44.0736 60.3243 43.8321 60.5185C43.5906 60.7126 43.4119 60.9671 43.2959 61.282C43.1799 61.5968 43.1219 61.9366 43.1219 62.3011C43.1219 62.6657 43.1799 63.0043 43.2959 63.3168C43.4119 63.6293 43.5906 63.8814 43.8321 64.0732C44.0736 64.2649 44.3814 64.3608 44.7554 64.3608ZM53.5347 65.1136C53.0233 65.1136 52.583 64.9929 52.2137 64.7514C51.8444 64.5099 51.5603 64.1773 51.3614 63.7536C51.1626 63.3298 51.0631 62.8456 51.0631 62.3011C51.0631 61.7472 51.1649 61.2583 51.3685 60.8345C51.5745 60.4084 51.8609 60.0758 52.2279 59.8366C52.5972 59.5952 53.0281 59.4744 53.5205 59.4744C53.904 59.4744 54.2497 59.5455 54.5574 59.6875C54.8652 59.8295 55.1173 60.0284 55.3138 60.2841C55.5103 60.5398 55.6323 60.8381 55.6796 61.179H54.8415C54.7776 60.9304 54.6356 60.7102 54.4154 60.5185C54.1976 60.3243 53.904 60.2273 53.5347 60.2273C53.208 60.2273 52.9215 60.3125 52.6753 60.483C52.4315 60.651 52.2409 60.889 52.1036 61.1967C51.9687 61.5021 51.9012 61.8608 51.9012 62.2727C51.9012 62.6941 51.9675 63.0611 52.1001 63.3736C52.235 63.6861 52.4244 63.9287 52.6682 64.1016C52.9144 64.2744 53.2033 64.3608 53.5347 64.3608C53.7525 64.3608 53.9502 64.3229 54.1278 64.2472C54.3053 64.1714 54.4556 64.0625 54.5787 63.9205C54.7019 63.7784 54.7894 63.608 54.8415 63.4091H55.6796C55.6323 63.7311 55.5151 64.0211 55.328 64.2791C55.1434 64.5348 54.8983 64.7384 54.593 64.8899C54.2899 65.0391 53.9372 65.1136 53.5347 65.1136ZM58.5099 65.1278C58.1642 65.1278 57.8505 65.0627 57.5688 64.9325C57.2871 64.8 57.0634 64.6094 56.8976 64.3608C56.7319 64.1098 56.6491 63.8068 56.6491 63.4517C56.6491 63.1392 56.7106 62.8859 56.8337 62.6918C56.9568 62.4953 57.1214 62.3414 57.3273 62.2301C57.5333 62.1188 57.7606 62.036 58.0091 61.9815C58.2601 61.9247 58.5122 61.8797 58.7655 61.8466C59.097 61.804 59.3657 61.772 59.5716 61.7507C59.78 61.727 59.9315 61.688 60.0262 61.6335C60.1233 61.5791 60.1718 61.4844 60.1718 61.3494V61.321C60.1718 60.9706 60.0759 60.6984 59.8841 60.5043C59.6948 60.3101 59.4071 60.2131 59.0212 60.2131C58.6211 60.2131 58.3074 60.3007 58.0802 60.4759C57.8529 60.651 57.6931 60.8381 57.6008 61.0369L56.8053 60.7528C56.9474 60.4214 57.1367 60.1634 57.3735 59.9787C57.6126 59.7917 57.873 59.6615 58.1547 59.5881C58.4388 59.5123 58.7182 59.4744 58.9928 59.4744C59.168 59.4744 59.3692 59.4957 59.5965 59.5384C59.8261 59.5786 60.0475 59.6626 60.2606 59.7905C60.476 59.9183 60.6547 60.1113 60.7968 60.3693C60.9388 60.6274 61.0099 60.973 61.0099 61.4062V65H60.1718V64.2614H60.1292C60.0724 64.3797 59.9777 64.5064 59.8451 64.6413C59.7125 64.7763 59.5361 64.8911 59.316 64.9858C59.0958 65.0805 58.8271 65.1278 58.5099 65.1278ZM58.6377 64.375C58.9691 64.375 59.2485 64.3099 59.4758 64.1797C59.7054 64.0495 59.8782 63.8814 59.9942 63.6754C60.1126 63.4695 60.1718 63.2528 60.1718 63.0256V62.2585C60.1363 62.3011 60.0581 62.3402 59.9374 62.3757C59.819 62.4089 59.6817 62.4384 59.5255 62.4645C59.3716 62.4882 59.2213 62.5095 59.0745 62.5284C58.9301 62.545 58.8129 62.5592 58.7229 62.571C58.5051 62.5994 58.3015 62.6456 58.1121 62.7095C57.9251 62.7711 57.7736 62.8646 57.6576 62.9901C57.5439 63.1132 57.4871 63.2812 57.4871 63.4943C57.4871 63.7855 57.5948 64.0057 57.8103 64.1548C58.0281 64.3016 58.3039 64.375 58.6377 64.375ZM63.3776 61.7188V65H62.5395V59.5455H63.3492V60.3977H63.4202C63.548 60.1207 63.7422 59.8982 64.0026 59.7301C64.263 59.5597 64.5992 59.4744 65.0111 59.4744C65.3804 59.4744 65.7036 59.5502 65.9806 59.7017C66.2575 59.8509 66.473 60.0781 66.6269 60.3835C66.7807 60.6866 66.8577 61.0701 66.8577 61.5341V65H66.0196V61.5909C66.0196 61.1624 65.9084 60.8286 65.6858 60.5895C65.4633 60.348 65.1579 60.2273 64.7696 60.2273C64.5021 60.2273 64.263 60.2853 64.0523 60.4013C63.844 60.5173 63.6794 60.6866 63.5587 60.9091C63.4379 61.1316 63.3776 61.4015 63.3776 61.7188ZM70.605 65.1136C70.0937 65.1136 69.6533 64.9929 69.284 64.7514C68.9147 64.5099 68.6306 64.1773 68.4317 63.7536C68.2329 63.3298 68.1334 62.8456 68.1334 62.3011C68.1334 61.7472 68.2352 61.2583 68.4388 60.8345C68.6448 60.4084 68.9313 60.0758 69.2982 59.8366C69.6675 59.5952 70.0984 59.4744 70.5908 59.4744C70.9743 59.4744 71.32 59.5455 71.6278 59.6875C71.9355 59.8295 72.1876 60.0284 72.3841 60.2841C72.5806 60.5398 72.7026 60.8381 72.7499 61.179H71.9118C71.8479 60.9304 71.7059 60.7102 71.4857 60.5185C71.2679 60.3243 70.9743 60.2273 70.605 60.2273C70.2783 60.2273 69.9919 60.3125 69.7456 60.483C69.5018 60.651 69.3112 60.889 69.1739 61.1967C69.039 61.5021 68.9715 61.8608 68.9715 62.2727C68.9715 62.6941 69.0378 63.0611 69.1704 63.3736C69.3053 63.6861 69.4947 63.9287 69.7385 64.1016C69.9848 64.2744 70.2736 64.3608 70.605 64.3608C70.8228 64.3608 71.0205 64.3229 71.1981 64.2472C71.3756 64.1714 71.526 64.0625 71.6491 63.9205C71.7722 63.7784 71.8598 63.608 71.9118 63.4091H72.7499C72.7026 63.7311 72.5854 64.0211 72.3983 64.2791C72.2137 64.5348 71.9687 64.7384 71.6633 64.8899C71.3602 65.0391 71.0075 65.1136 70.605 65.1136ZM76.262 65.1136C75.7364 65.1136 75.2831 64.9976 74.9019 64.7656C74.5231 64.5312 74.2307 64.2045 74.0248 63.7855C73.8212 63.3641 73.7194 62.8741 73.7194 62.3153C73.7194 61.7566 73.8212 61.2642 74.0248 60.8381C74.2307 60.4096 74.5172 60.0758 74.8841 59.8366C75.2535 59.5952 75.6843 59.4744 76.1768 59.4744C76.4608 59.4744 76.7414 59.5218 77.0184 59.6165C77.2954 59.7112 77.5475 59.8651 77.7748 60.0781C78.002 60.2888 78.1832 60.5682 78.3181 60.9162C78.453 61.2642 78.5205 61.6927 78.5205 62.2017V62.5568H74.316V61.8324H77.6682C77.6682 61.5246 77.6067 61.25 77.4836 61.0085C77.3628 60.767 77.19 60.5765 76.9651 60.4368C76.7426 60.2971 76.4798 60.2273 76.1768 60.2273C75.843 60.2273 75.5541 60.3101 75.3103 60.4759C75.0688 60.6392 74.883 60.8523 74.7528 61.1151C74.6225 61.3778 74.5574 61.6596 74.5574 61.9602V62.4432C74.5574 62.8551 74.6285 63.2043 74.7705 63.4908C74.9149 63.7749 75.115 63.9915 75.3706 64.1406C75.6263 64.2874 75.9234 64.3608 76.262 64.3608C76.4822 64.3608 76.681 64.33 76.8586 64.2685C77.0385 64.2045 77.1936 64.1098 77.3238 63.9844C77.454 63.8565 77.5546 63.6979 77.6256 63.5085L78.4353 63.7358C78.3501 64.0104 78.2068 64.2519 78.0056 64.4602C77.8044 64.6662 77.5558 64.8272 77.2599 64.9432C76.9639 65.0568 76.6313 65.1136 76.262 65.1136ZM80.6334 57.7273V65H79.7954V57.7273H80.6334Z" fill="#646464" fill-opacity="0.6"/>
<rect x="0.25" y="-0.25" width="65.5" height="0.5" transform="matrix(1 0 0 -1 269 0.5)" stroke="black" stroke-opacity="0.01" stroke-width="0.5"/>
</svg>
